Coordinates
version=1
nRows=26
nColumns=22
inDegrees=yes

Units are S.I. units (second, meters, Newtons, ...)
If the header above contains a line with 'inDegrees', this indicates whether rotational values are in degrees (yes) or radians (no).

endheader
time	pelvis_tilt	pelvis_list	pelvis_rotation	pelvis_tx	pelvis_ty	pelvis_tz	hip_flexion_r	hip_adduction_r	hip_rotation_r	knee_angle_r	ankle_angle_r	subtalar_angle_r	hip_flexion_l	hip_adduction_l	hip_rotation_l	knee_angle_l	ankle_angle_l	subtalar_angle_l	lumbar_extension	lumbar_bending	lumbar_rotation
      4.96000000	     -3.92982409	      0.21506742	    -96.87107553	      0.67225545	      0.91713921	      0.46854248	     11.84534956	     13.94235483	     -7.09855651	    -20.11237168	      8.70950378	    -12.45661896	     18.14035540	    -10.44599950	      4.66799976	    -68.71481420	     -8.51047968	      2.11119633	     -6.28124139	      3.05497750	    -12.02133889
      4.97000000	     -3.95321979	      0.21963916	    -98.13191149	      0.66937113	      0.91790911	      0.47605765	     10.85223834	     14.23923469	     -5.94799934	    -19.61729477	      8.85269695	    -12.52802555	     19.27832037	    -10.66837489	      5.05414679	    -68.31307528	     -6.94348542	      1.77630026	     -6.35647405	      2.88373918	    -11.25593835
      4.98000000	     -3.95681506	      0.25274602	    -99.44178280	      0.66641185	      0.91858107	      0.48339963	      9.92603129	     14.49540863	     -4.70157043	    -19.19232475	      8.95178239	    -12.57885516	     20.35627016	    -10.86297547	      5.45045122	    -67.67492943	     -5.42461956	      1.53390998	     -6.39383758	      2.69378580	    -10.45862374
      4.99000000	     -3.94415805	      0.28272984	   -100.78361800	      0.66344851	      0.91921652	      0.49064900	      9.02870438	     14.69808058	     -3.42692730	    -18.83208326	      9.07000018	    -12.63978442	     21.32723431	    -11.03244459	      5.83791346	    -66.79622655	     -3.90557115	      1.21575965	     -6.42387478	      2.49633727	     -9.63148029
      5.00000000	     -3.91338706	      0.28395012	   -102.14426469	      0.66049245	      0.91984866	      0.49779616	      8.14299961	     14.84981637	     -2.06096828	    -18.55047329	      9.19004239	    -12.72005318	     22.16881527	    -11.16225391	      6.22327499	    -65.69232407	     -2.43938553	      0.74225788	     -6.47864515	      2.27850241	     -8.80909377
      5.01000000	     -3.86928528	      0.27592870	   -103.51798468	      0.65758607	      0.92044445	      0.50491393	      7.28840623	     14.94558638	     -0.69287112	    -18.34449758	      9.33975570	    -12.80054330	     22.89936906	    -11.26564872	      6.58348994	    -64.37931750	     -1.00514819	      0.15686411	     -6.52618664	      2.06034822	     -7.96854067
      5.02000000	     -3.79813011	      0.27481381	   -104.92989309	      0.65467567	      0.92097798	      0.51193933	      6.48499475	     14.99380274	      0.79479230	    -18.21222183	      9.49101921	    -12.85138716	     23.54505964	    -11.34408945	      6.88612364	    -62.87727687	      0.24168706	     -0.34315141	     -6.55182041	      1.82546915	     -7.09916696
      5.03000000	     -3.70333391	      0.26756108	   -106.35322168	      0.65179763	      0.92145913	      0.51893632	      5.71199419	     14.98496564	      2.30109506	    -18.13352540	      9.67801841	    -12.89415807	     24.09638205	    -11.39246498	      7.13267734	    -61.19994532	      1.35352587	     -0.87737701	     -6.56140255	      1.57478561	     -6.21226665
      5.04000000	     -3.59321831	      0.24394790	   -107.77404001	      0.64902564	      0.92188244	      0.52586215	      4.98865871	     14.92147738	      3.79902205	    -18.15200088	      9.90401761	    -12.93245380	     24.55715232	    -11.39202260	      7.35597859	    -59.37543957	      2.37066931	     -1.45104985	     -6.58018200	      1.32490406	     -5.34281660
      5.05000000	     -3.45332443	      0.23760912	   -109.19676584	      0.64628725	      0.92220509	      0.53274318	      4.32495677	     14.80450437	      5.29514407	    -18.21222637	     10.17077339	    -12.94545532	     24.97137456	    -11.35188549	      7.53418840	    -57.41541918	      3.17747536	     -1.90346548	     -6.55236469	      1.05963815	     -4.46015470
      5.06000000	     -3.30368025	      0.20915738	   -110.59680251	      0.64365490	      0.92247327	      0.53954379	      3.70776650	     14.64206814	      6.74590390	    -18.36106838	     10.46508120	    -12.95629377	     25.30302113	    -11.25100097	      7.71823698	    -55.33099063	      3.86657653	     -2.33434824	     -6.54367762	      0.79597939	     -3.62939004
      5.07000000	     -3.13978649	      0.18609970	   -111.97108427	      0.64109994	      0.92264298	      0.54629171	      3.15182516	     14.43743816	      8.11392061	    -18.56583480	     10.79028298	    -12.95024814	     25.58943321	    -11.09569669	      7.91652305	    -53.13823607	      4.40595326	     -2.62126668	     -6.51088960	      0.53770038	     -2.83878040
      5.08000000	     -2.95930576	      0.19569221	   -113.30704341	      0.63863311	      0.92264222	      0.55294033	      2.71550485	     14.20634948	      9.35477163	    -18.87054838	     11.15693967	    -12.91724915	     25.87453697	    -10.88836985	      8.16398990	    -50.85391839	      4.83282931	     -2.68792589	     -6.43127160	      0.29196091	     -2.10380786
      5.09000000	     -2.78325876	      0.16546616	   -114.58848961	      0.63624586	      0.92264186	      0.55958563	      2.25077749	     13.93607395	     10.50595761	    -19.15792008	     11.52863945	    -12.88466452	     26.06138364	    -10.61940268	      8.46441791	    -48.45375980	      5.10723401	     -2.65605476	     -6.38526804	      0.04950253	     -1.45013767
      5.10000000	     -2.63585792	      0.07110879	   -115.79554767	      0.63396742	      0.92268752	      0.56627701	      1.70429782	     13.63358514	     11.56654333	    -19.39246617	     11.89658805	    -12.85276318	     26.11651875	    -10.29223758	      8.85039661	    -45.94004700	      5.25560906	     -2.38189605	     -6.41002215	     -0.17570795	     -0.89551788
      5.11000000	     -2.47625511	      0.01079061	   -116.94046282	      0.63180052	      0.92255388	      0.57295232	      1.24418306	     13.31517968	     12.51738808	    -19.67124186	     12.31107153	    -12.79554120	     26.17500359	     -9.92066007	      9.32491394	    -43.34621216	      5.33797994	     -1.87332460	     -6.38696961	     -0.38146207	     -0.41076846
      5.12000000	     -2.32829635	     -0.04641262	   -118.01604731	      0.62971010	      0.92231188	      0.57968403	      0.79380053	     12.98826109	     13.37180814	    -19.93963280	     12.74696406	    -12.72453674	     26.19271658	     -9.53533186	      9.86092623	    -40.67569823	      5.37216144	     -1.20492521	     -6.35483360	     -0.55903414	     -0.01226671
      5.13000000	     -2.20351062	     -0.10100258	   -119.02768348	      0.62764272	      0.92197429	      0.58649252	      0.32477858	     12.66625848	     14.14968643	    -20.16516021	     13.19110197	    -12.64160963	     26.16396088	     -9.16415968	     10.44062619	    -37.93986106	      5.37155698	     -0.43583031	     -6.31633351	     -0.70290356	      0.31780498
      5.14000000	     -2.11367210	     -0.14268508	   -119.97464076	      0.62556451	      0.92152341	      0.59337755	     -0.15830005	     12.36615879	     14.82536867	    -20.35345817	     13.63849048	    -12.55005963	     26.10509938	     -8.84451221	     11.02245546	    -35.16463388	      5.37137389	      0.37810056	     -6.26992762	     -0.80208886	      0.60260727
      5.15000000	     -2.06644953	     -0.16479541	   -120.86216235	      0.62344052	      0.92094792	      0.60032349	     -0.65434344	     12.10341962	     15.41089698	    -20.50978348	     14.06983910	    -12.45210449	     26.02890593	     -8.60325615	     11.56544364	    -32.37898847	      5.40289579	      1.19178666	     -6.21599826	     -0.84744202	      0.81137719
      5.16000000	     -2.06609540	     -0.16722556	   -121.69464699	      0.62126956	      0.92025800	      0.60732893	     -1.17582781	     11.87834919	     15.90398734	    -20.61847104	     14.50473576	    -12.34619315	     25.94476643	     -8.45447950	     12.00967185	    -29.61289952	      5.45430116	      1.92345336	     -6.16025686	     -0.83782785	      1.00242571
      5.17000000	     -2.10823532	     -0.14442401	   -122.47891949	      0.61905285	      0.91943502	      0.61436502	     -1.70696671	     11.69598691	     16.33190861	    -20.70241032	     14.93468860	    -12.23105985	     25.87008183	     -8.39774655	     12.32337051	    -26.90141589	      5.55182566	      2.58213937	     -6.10089836	     -0.77426409	      1.13834558
      5.18000000	     -2.19187605	     -0.09925204	   -123.21820109	      0.61679940	      0.91849107	      0.62143402	     -2.25584602	     11.55180236	     16.70725837	    -20.75423840	     15.37315246	    -12.10443205	     25.80849862	     -8.42619511	     12.47478318	    -24.27145724	      5.67103601	      3.13895182	     -6.04443168	     -0.66149074	      1.26702303
      5.19000000	     -2.31000387	     -0.03128941	   -123.92165092	      0.61452014	      0.91742415	      0.62853859	     -2.81432761	     11.44049882	     17.05800800	    -20.78807154	     15.81819681	    -11.96708150	     25.77068436	     -8.52313243	     12.45772391	    -21.76262398	      5.80695660	      3.60944312	     -5.98691044	     -0.50099254	      1.37305981
      5.20000000	     -2.46012783	      0.06044205	   -124.58366937	      0.61221075	      0.91624539	      0.63569754	     -3.39189445	     11.36138406	     17.41162611	    -20.78693090	     16.25781444	    -11.81720955	     25.76091249	     -8.67035834	     12.30685601	    -19.40405852	      5.94684856	      4.02114481	     -5.92737761	     -0.29746147	      1.45014581
      5.21000000	     -2.63894671	      0.17901185	   -125.21348670	      0.60987491	      0.91495563	      0.64290789	     -3.97638948	     11.31384940	     17.77831352	    -20.76776416	     16.69546672	    -11.66041548	     25.78875071	     -8.85612972	     12.05981557	    -17.23513550	      6.07647425	      4.35142781	     -5.86319680	     -0.05112403	      1.51697285
